<svg width="95" height="95" viewBox="0 0 95 95" fill="none" xmlns="http://www.w3.org/2000/svg">
<g clip-path="url(#clip0_254_29)">
<path d="M24.7336 9.15682C24.738 8.92521 24.8337 8.70472 24.9999 8.54338C25.5567 8.00306 26.4892 8.39752 26.4892 9.17332V78.401C26.4892 79.2452 25.8048 79.9295 24.9606 79.9295C24.1052 79.9295 23.4163 79.2275 23.4324 78.3723L24.7336 9.15682Z" fill="#AAAAAA"/>
<path d="M41.867 79.3C41.8808 79.5312 41.8027 79.7585 41.6496 79.9324C41.137 80.5147 40.1764 80.1946 40.1155 79.4212L34.684 10.407C34.6178 9.56538 35.2463 8.82945 36.0878 8.76322C36.9407 8.6961 37.6826 9.34187 37.7336 10.1958L41.867 79.3Z" fill="#AAAAAA"/>
<path d="M72.0829 34.9375L73.251 32.4884L53.1721 74.5848C52.6492 75.6808 51.337 76.1456 50.2409 75.6228C49.0666 75.0627 48.6329 73.6108 49.3075 72.4982L72.0829 34.9375Z" fill="#AAAAAA"/>
<path d="M65.5977 32.3424L76.0661 77.4198C76.2733 78.3119 75.7359 79.2077 74.8512 79.4448C73.8758 79.7061 72.8891 79.0637 72.7333 78.066L65.5977 32.3424Z" fill="#AAAAAA"/>
<path d="M21.2422 63.7304C21.2422 62.7725 22.0354 62.005 22.9926 62.0366L85.4053 64.0922C85.7647 64.1041 86.0499 64.3988 86.0499 64.7584C86.0499 65.1265 85.7515 65.425 85.3833 65.425H22.9369C22.0009 65.425 21.2422 64.6663 21.2422 63.7304Z" fill="#AAAAAA"/>
<path d="M47.4999 92.3315C72.2597 92.3315 92.3314 72.2598 92.3314 47.5C92.3314 22.7403 72.2597 2.66858 47.4999 2.66858C22.7402 2.66858 2.66846 22.7403 2.66846 47.5C2.66846 72.2598 22.7402 92.3315 47.4999 92.3315Z" stroke="#AAAAAA" stroke-width="6"/>
</g>
<defs>
<clipPath id="clip0_254_29">
<rect width="95" height="95" fill="white"/>
</clipPath>
</defs>
</svg>
