<svg width="80" height="80" viewBox="0 0 80 80" fill="none" xmlns="http://www.w3.org/2000/svg">
<g clip-path="url(#clip0_244_14)">
<path d="M20.8284 7.71113C20.8321 7.51605 20.9127 7.33039 21.0527 7.19451C21.5215 6.7395 22.3068 7.07168 22.3068 7.72503V66.0222C22.3068 66.733 21.7305 67.309 21.0196 67.309C20.2992 67.309 19.7191 66.7182 19.7327 65.9976L20.8284 7.71113Z" fill="#AAAAAA"/>
<path d="M35.2565 66.779C35.2681 66.9735 35.2024 67.1649 35.0735 67.3113C34.6418 67.8018 33.8329 67.5323 33.7816 66.8812L29.2076 8.76371C29.1519 8.05503 29.6812 7.43528 30.3899 7.37952C31.108 7.32303 31.7328 7.86678 31.7758 8.58586L35.2565 66.779Z" fill="#AAAAAA"/>
<path d="M60.701 29.421L61.6848 27.3588L44.7761 62.8087C44.3359 63.7311 43.2308 64.1225 42.3079 63.6825C41.3189 63.2105 40.9536 61.9884 41.5217 61.0513L60.701 29.421Z" fill="#AAAAAA"/>
<path d="M55.2402 27.2356L64.0561 65.1957C64.2303 65.947 63.778 66.7009 63.0327 66.9009C62.2112 67.1206 61.3804 66.5797 61.2493 65.7397L55.2402 27.2356Z" fill="#AAAAAA"/>
<path d="M17.8882 53.6676C17.8882 52.861 18.5561 52.2147 19.3623 52.2413L71.9201 53.9723C72.2228 53.9823 72.4628 54.2306 72.4628 54.5334C72.4628 54.8434 72.2118 55.0947 71.9016 55.0947H19.3153C18.5271 55.0947 17.8882 54.4558 17.8882 53.6676Z" fill="#AAAAAA"/>
<path d="M40.0001 78.4615C61.2418 78.4615 78.4617 61.2417 78.4617 40C78.4617 18.7583 61.2418 1.53845 40.0001 1.53845C18.7584 1.53845 1.53857 18.7583 1.53857 40C1.53857 61.2417 18.7584 78.4615 40.0001 78.4615Z" stroke="#AAAAAA" stroke-width="5"/>
</g>
<defs>
<clipPath id="clip0_244_14">
<rect width="80" height="80" fill="white"/>
</clipPath>
</defs>
</svg>
