<svg width="40" height="40" viewBox="0 0 40 40" fill="none" xmlns="http://www.w3.org/2000/svg">
<path fill-rule="evenodd" clip-rule="evenodd" d="M12.4415 1.7765C14.3965 1.6865 15.0198 1.6665 19.9998 1.6665C24.9798 1.6665 25.6032 1.68817 27.5565 1.7765C29.5098 1.86484 30.8432 2.1765 32.0098 2.62817C33.2315 3.08984 34.3398 3.8115 35.2565 4.74484C36.1898 5.65984 36.9098 6.7665 37.3698 7.98984C37.8232 9.1565 38.1332 10.4898 38.2232 12.4398C38.3132 14.3982 38.3332 15.0215 38.3332 19.9998C38.3332 24.9798 38.3115 25.6032 38.2232 27.5582C38.1348 29.5082 37.8232 30.8415 37.3698 32.0082C36.9098 33.2317 36.1886 34.3402 35.2565 35.2565C34.3398 36.1898 33.2315 36.9098 32.0098 37.3698C30.8432 37.8232 29.5098 38.1332 27.5598 38.2232C25.6032 38.3132 24.9798 38.3332 19.9998 38.3332C15.0198 38.3332 14.3965 38.3115 12.4415 38.2232C10.4915 38.1348 9.15817 37.8232 7.9915 37.3698C6.76804 36.9098 5.65954 36.1886 4.74317 35.2565C3.81047 34.3409 3.08869 33.233 2.62817 32.0098C2.1765 30.8432 1.8665 29.5098 1.7765 27.5598C1.6865 25.6015 1.6665 24.9782 1.6665 19.9998C1.6665 15.0198 1.68817 14.3965 1.7765 12.4432C1.86484 10.4898 2.1765 9.1565 2.62817 7.98984C3.08938 6.76664 3.8117 5.65869 4.74484 4.74317C5.6599 3.81067 6.76729 3.08891 7.98984 2.62817C9.1565 2.1765 10.4898 1.8665 12.4398 1.7765H12.4415ZM27.4082 5.0765C25.4748 4.98817 24.8948 4.96984 19.9998 4.96984C15.1048 4.96984 14.5248 4.98817 12.5915 5.0765C10.8032 5.15817 9.83317 5.4565 9.1865 5.70817C8.3315 6.0415 7.71984 6.4365 7.07817 7.07817C6.46991 7.66992 6.0018 8.39031 5.70817 9.1865C5.4565 9.83317 5.15817 10.8032 5.0765 12.5915C4.98817 14.5248 4.96984 15.1048 4.96984 19.9998C4.96984 24.8948 4.98817 25.4748 5.0765 27.4082C5.15817 29.1965 5.4565 30.1665 5.70817 30.8132C6.0015 31.6082 6.46984 32.3298 7.07817 32.9215C7.66984 33.5298 8.3915 33.9982 9.1865 34.2915C9.83317 34.5432 10.8032 34.8415 12.5915 34.9232C14.5248 35.0115 15.1032 35.0298 19.9998 35.0298C24.8965 35.0298 25.4748 35.0115 27.4082 34.9232C29.1965 34.8415 30.1665 34.5432 30.8132 34.2915C31.6682 33.9582 32.2798 33.5632 32.9215 32.9215C33.5298 32.3298 33.9982 31.6082 34.2915 30.8132C34.5432 30.1665 34.8415 29.1965 34.9232 27.4082C35.0115 25.4748 35.0298 24.8948 35.0298 19.9998C35.0298 15.1048 35.0115 14.5248 34.9232 12.5915C34.8415 10.8032 34.5432 9.83317 34.2915 9.1865C33.9582 8.3315 33.5632 7.71984 32.9215 7.07817C32.3297 6.46996 31.6093 6.00185 30.8132 5.70817C30.1665 5.4565 29.1965 5.15817 27.4082 5.0765V5.0765ZM17.6582 25.6515C18.9659 26.1959 20.4221 26.2694 21.7781 25.8594C23.134 25.4494 24.3055 24.5814 25.0925 23.4036C25.8795 22.2258 26.2333 20.8113 26.0932 19.4017C25.9532 17.9921 25.3282 16.6748 24.3248 15.6748C23.6852 15.0356 22.9119 14.5462 22.0604 14.2417C21.2089 13.9373 20.3006 13.8254 19.4007 13.9142C18.5008 14.003 17.6318 14.2901 16.8562 14.7551C16.0806 15.22 15.4177 15.8511 14.9153 16.6029C14.4129 17.3548 14.0835 18.2087 13.9507 19.1031C13.8179 19.9976 13.8851 20.9103 14.1474 21.7757C14.4097 22.6411 14.8606 23.4375 15.4677 24.1077C16.0748 24.7779 16.8229 25.3051 17.6582 25.6515ZM13.3365 13.3365C14.2115 12.4615 15.2504 11.7673 16.3937 11.2938C17.537 10.8202 18.7623 10.5765 19.9998 10.5765C21.2373 10.5765 22.4627 10.8202 23.606 11.2938C24.7493 11.7673 25.7881 12.4615 26.6632 13.3365C27.5382 14.2115 28.2323 15.2504 28.7059 16.3937C29.1795 17.537 29.4232 18.7623 29.4232 19.9998C29.4232 21.2373 29.1795 22.4627 28.7059 23.606C28.2323 24.7493 27.5382 25.7881 26.6632 26.6632C24.8959 28.4304 22.4991 29.4232 19.9998 29.4232C17.5006 29.4232 15.1037 28.4304 13.3365 26.6632C11.5693 24.8959 10.5765 22.4991 10.5765 19.9998C10.5765 17.5006 11.5693 15.1037 13.3365 13.3365V13.3365ZM31.5132 11.9798C31.73 11.7753 31.9036 11.5293 32.0237 11.2565C32.1437 10.9836 32.2079 10.6895 32.2122 10.3914C32.2165 10.0933 32.161 9.79742 32.049 9.52119C31.9369 9.24496 31.7706 8.99402 31.5598 8.78324C31.349 8.57245 31.098 8.4061 30.8218 8.29403C30.5456 8.18197 30.2497 8.12646 29.9516 8.13081C29.6536 8.13515 29.3594 8.19926 29.0865 8.31933C28.8137 8.4394 28.5677 8.613 28.3632 8.82984C27.9654 9.25155 27.7476 9.81171 27.756 10.3914C27.7645 10.9711 27.9985 11.5246 28.4084 11.9346C28.8184 12.3445 29.3719 12.5786 29.9516 12.587C30.5313 12.5955 31.0915 12.3777 31.5132 11.9798V11.9798Z" fill="white"/>
</svg>
