<svg width="44" height="44" viewBox="0 0 44 44" fill="none" xmlns="http://www.w3.org/2000/svg">
<path d="M9.36788 3.30811L7.43188 5.24136L10.3125 8.12061L12.2458 6.18736L9.3665 3.30811H9.36788ZM34.6335 3.30811L31.7529 6.18736L33.6875 8.12061L36.5667 5.24273L34.6321 3.30811H34.6335ZM22 4.16611C21.5462 4.17161 21.087 4.19773 20.625 4.25411C20.6113 4.25411 20.5975 4.25136 20.5838 4.25411C15.0068 4.89348 10.5682 9.39935 9.79688 14.9516C9.18087 19.4204 11.0234 23.4725 14.0938 26.0822C15.3497 27.1541 16.1992 28.625 16.5 30.2485V38.4985H19.635C20.1135 39.3194 20.9866 39.8735 22 39.8735C23.0134 39.8735 23.8865 39.3194 24.365 38.4985H27.5V32.9985H27.6292V31.365C27.6292 29.3492 28.677 27.317 30.3792 25.7371C32.6562 23.4574 34.375 20.2192 34.375 16.4999C34.375 9.70736 28.7843 4.10286 22 4.16611V4.16611ZM22 6.91611C27.3144 6.84186 31.625 11.1924 31.625 16.4999C31.625 19.3791 30.2913 21.9146 28.4446 23.7599L28.4886 23.8039C26.6535 25.4961 25.4669 27.776 25.1336 30.2499H19.1194C18.8169 27.8931 17.8062 25.612 15.8964 23.9757C13.4667 21.9132 12.0189 18.8057 12.5029 15.2967C13.1038 10.9655 16.6183 7.48261 20.9248 7.00548C21.2803 6.95591 21.6384 6.92653 21.9973 6.91748L22 6.91611ZM2.75 16.4999V19.2499H6.875V16.4999H2.75ZM37.125 16.4999V19.2499H41.25V16.4999H37.125ZM10.3125 27.6291L7.43325 30.507L9.36788 32.4416L12.2444 29.5624L10.3125 27.6291ZM33.6875 27.6291L31.7542 29.5624L34.6321 32.4416L36.5667 30.507L33.6875 27.6291ZM19.25 32.9999H24.75V35.7499H19.25V32.9999Z" fill="white"/>
</svg>
