<svg width="45" height="45" viewBox="0 0 45 45" fill="none" xmlns="http://www.w3.org/2000/svg">
<path d="M22.5 0C10.0744 0 0 10.0744 0 22.5C0 34.9256 10.0744 45 22.5 45C34.9256 45 45 34.9256 45 22.5C45 10.0744 34.9256 0 22.5 0ZM14.055 10.1306C15.6338 10.1306 16.6856 11.1825 16.6856 12.585C16.6856 13.9875 15.6337 15.0394 13.8806 15.0394C12.3019 15.0412 11.25 13.9875 11.25 12.585C11.25 11.1825 12.3019 10.1306 14.055 10.1306ZM16.875 31.875H11.25V16.875H16.875V31.875ZM35.625 31.875H30.33V23.6775C30.33 21.4106 28.9181 20.8875 28.3894 20.8875C27.8606 20.8875 26.0944 21.2363 26.0944 23.6775C26.0944 24.0263 26.0944 31.875 26.0944 31.875H20.625V16.875H26.0962V18.9675C26.8012 17.7469 28.2131 16.875 30.8606 16.875C33.5081 16.875 35.625 18.9675 35.625 23.6775V31.875Z" fill="#06D8A5"/>
</svg>
