<svg width="53" height="53" viewBox="0 0 53 53" fill="none" xmlns="http://www.w3.org/2000/svg">
<path d="M38.6838 27.7267C38.6631 24.1968 40.2624 21.5364 43.4921 19.5748C41.6857 16.9869 38.9529 15.5636 35.3506 15.2893C31.9397 15.0201 28.208 17.2768 26.8416 17.2768C25.3976 17.2768 22.0954 15.3824 19.4972 15.3824C14.1351 15.4652 8.43652 19.6576 8.43652 28.1873C8.43652 30.7079 8.89717 33.3113 9.81846 35.9924C11.0503 39.5223 15.4911 48.171 20.1234 48.0312C22.5457 47.9743 24.2589 46.3129 27.4109 46.3129C30.4698 46.3129 32.0536 48.0312 34.7554 48.0312C39.4291 47.964 43.4455 40.102 44.6152 36.5617C38.3474 33.6063 38.6838 27.9078 38.6838 27.7267ZM33.244 11.9405C35.8682 8.82471 35.6301 5.98838 35.5524 4.96875C33.2337 5.10332 30.5526 6.54736 29.0258 8.32266C27.3437 10.2273 26.3551 12.5823 26.5673 15.2375C29.0724 15.429 31.3601 14.1402 33.244 11.9405Z" fill="black"/>
</svg>
