<svg width="44" height="44" viewBox="0 0 44 44" fill="none" xmlns="http://www.w3.org/2000/svg">
<path d="M22.0002 23.8334C21.442 23.8269 20.8952 23.9915 20.4335 24.3051C19.9717 24.6188 19.6171 25.0663 19.4174 25.5876C19.2177 26.1088 19.1824 26.6787 19.3164 27.2206C19.4504 27.7625 19.7472 28.2503 20.1668 28.6184V31.1667C20.1668 31.653 20.36 32.1193 20.7038 32.4631C21.0476 32.8069 21.5139 33.0001 22.0002 33.0001C22.4864 33.0001 22.9527 32.8069 23.2965 32.4631C23.6403 32.1193 23.8335 31.653 23.8335 31.1667V28.6184C24.2531 28.2503 24.5499 27.7625 24.6839 27.2206C24.8179 26.6787 24.7827 26.1088 24.5829 25.5876C24.3832 25.0663 24.0286 24.6188 23.5669 24.3051C23.1051 23.9915 22.5583 23.8269 22.0002 23.8334V23.8334ZM31.1668 16.5001V12.8334C31.1668 10.4023 30.2011 8.07069 28.482 6.3516C26.7629 4.63252 24.4313 3.66675 22.0002 3.66675C19.569 3.66675 17.2374 4.63252 15.5184 6.3516C13.7993 8.07069 12.8335 10.4023 12.8335 12.8334V16.5001C11.3748 16.5001 9.97586 17.0795 8.94441 18.111C7.91296 19.1424 7.3335 20.5414 7.3335 22.0001V34.8334C7.3335 36.2921 7.91296 37.6911 8.94441 38.7225C9.97586 39.754 11.3748 40.3334 12.8335 40.3334H31.1668C32.6255 40.3334 34.0245 39.754 35.0559 38.7225C36.0874 37.6911 36.6668 36.2921 36.6668 34.8334V22.0001C36.6668 20.5414 36.0874 19.1424 35.0559 18.111C34.0245 17.0795 32.6255 16.5001 31.1668 16.5001ZM16.5002 12.8334C16.5002 11.3747 17.0796 9.97578 18.1111 8.94433C19.1425 7.91288 20.5415 7.33341 22.0002 7.33341C23.4589 7.33341 24.8578 7.91288 25.8893 8.94433C26.9207 9.97578 27.5002 11.3747 27.5002 12.8334V16.5001H16.5002V12.8334ZM33.0002 34.8334C33.0002 35.3196 32.807 35.786 32.4632 36.1298C32.1194 36.4736 31.6531 36.6667 31.1668 36.6667H12.8335C12.3473 36.6667 11.881 36.4736 11.5371 36.1298C11.1933 35.786 11.0002 35.3196 11.0002 34.8334V22.0001C11.0002 21.5139 11.1933 21.0475 11.5371 20.7037C11.881 20.3599 12.3473 20.1667 12.8335 20.1667H31.1668C31.6531 20.1667 32.1194 20.3599 32.4632 20.7037C32.807 21.0475 33.0002 21.5139 33.0002 22.0001V34.8334Z" fill="white"/>
</svg>
