<svg width="53" height="53" viewBox="0 0 53 53" fill="none" xmlns="http://www.w3.org/2000/svg">
<path d="M28.6069 25.6519L35.137 19.1219L14.0452 7.26755C12.6473 6.5123 11.3377 6.4063 10.1894 7.23221L28.6069 25.6519ZM36.25 33.2972L43.0384 29.479C44.3634 28.737 45.0899 27.6858 45.0899 26.5198C45.0899 25.356 44.3634 24.3026 43.0406 23.5606L36.8948 20.109L29.9761 27.0255L36.25 33.2972ZM9.05433 8.83767C8.913 9.27271 8.8335 9.75855 8.8335 10.2908V42.7643C8.8335 43.6057 9.019 44.33 9.35466 44.9064L27.2355 27.0233L9.05433 8.83767ZM28.6069 28.3925L10.8254 46.1762C11.1655 46.3065 11.5321 46.3749 11.9185 46.3749C12.6075 46.3749 13.3252 46.1718 14.0562 45.7654L34.4943 34.2887L28.6069 28.3925Z" fill="white"/>
</svg>
