<svg width="153" height="93" viewBox="0 0 153 93" fill="none" xmlns="http://www.w3.org/2000/svg">
<path d="M10.107 60.5829H24.5348V64.9524H4.72607V23.7962H10.107V60.5829Z" fill="black"/>
<path d="M11.7568 59.83C11.7568 56.8186 12.4368 54.1171 13.7968 51.7257C15.1568 49.3048 17.0047 47.4152 19.3403 46.0571C21.7055 44.6991 24.3221 44.02 27.1899 44.02C30.5603 44.02 33.5021 44.8319 36.0151 46.4557C38.5281 48.0795 40.3612 50.3824 41.5142 53.3643H36.6803C35.8229 51.5043 34.5812 50.0724 32.9551 49.0686C31.3586 48.0648 29.4368 47.5629 27.1899 47.5629C25.0316 47.5629 23.0951 48.0648 21.3803 49.0686C19.6655 50.0724 18.3203 51.5043 17.3447 53.3643C16.369 55.1948 15.8812 57.35 15.8812 59.83C15.8812 62.2805 16.369 64.4357 17.3447 66.2957C18.3203 68.1262 19.6655 69.5433 21.3803 70.5471C23.0951 71.551 25.0316 72.0529 27.1899 72.0529C29.4368 72.0529 31.3586 71.5657 32.9551 70.5914C34.5812 69.5876 35.8229 68.1557 36.6803 66.2957H41.5142C40.3612 69.2481 38.5281 71.5362 36.0151 73.16C33.5021 74.7543 30.5603 75.5514 27.1899 75.5514C24.3221 75.5514 21.7055 74.8871 19.3403 73.5586C17.0047 72.2005 15.1568 70.3257 13.7968 67.9343C12.4368 65.5429 11.7568 62.8414 11.7568 59.83Z" fill="#06D8A5"/>
<path d="M63.3871 49.0538C64.5105 49.231 65.5305 49.6886 66.4471 50.4267C67.3931 51.1648 68.1323 52.08 68.6645 53.1724C69.2262 54.2648 69.5071 55.431 69.5071 56.671C69.5071 58.2357 69.1079 59.6529 68.3097 60.9224C67.5114 62.1624 66.3436 63.1514 64.8062 63.8895C63.2984 64.5981 61.5097 64.9524 59.4401 64.9524H47.9097V34.0852H58.9966C61.0958 34.0852 62.8845 34.4395 64.3627 35.1481C65.841 35.8271 66.9497 36.7571 67.6888 37.9381C68.4279 39.119 68.7975 40.4476 68.7975 41.9238C68.7975 43.7543 68.2949 45.2748 67.2897 46.4852C66.314 47.6662 65.0131 48.5224 63.3871 49.0538ZM51.9453 47.4152H58.7305C60.6227 47.4152 62.0862 46.9724 63.121 46.0867C64.1558 45.201 64.6731 43.9757 64.6731 42.411C64.6731 40.8462 64.1558 39.621 63.121 38.7352C62.0862 37.8495 60.5931 37.4067 58.6418 37.4067H51.9453V47.4152ZM59.0853 61.631C61.0958 61.631 62.6627 61.1586 63.7862 60.2138C64.9097 59.269 65.4714 57.9552 65.4714 56.2724C65.4714 54.56 64.8801 53.2167 63.6975 52.2424C62.5149 51.2386 60.9331 50.7367 58.9523 50.7367H51.9453V61.631H59.0853ZM116.918 40.241C119.874 40.241 122.269 41.1414 124.102 42.9424C125.935 44.7138 126.852 47.2824 126.852 50.6481V64.9524H122.86V51.2238C122.86 48.8029 122.254 46.9576 121.042 45.6881C119.83 44.389 118.174 43.7395 116.075 43.7395C113.946 43.7395 112.246 44.4038 110.975 45.7324C109.733 47.061 109.112 48.9948 109.112 51.5338V64.9524H105.077V40.6838H109.112V44.1381C109.911 42.8981 110.99 41.9386 112.35 41.2595C113.739 40.5805 115.262 40.241 116.918 40.241Z" fill="black"/>
<path d="M73.5996 52.7295C73.5996 50.2495 74.1021 48.0795 75.1074 46.2195C76.1126 44.33 77.4874 42.8686 79.2317 41.8352C81.0056 40.8019 82.9717 40.2852 85.13 40.2852C87.2587 40.2852 89.1065 40.7429 90.6734 41.6581C92.2404 42.5733 93.4082 43.7248 94.1769 45.1124V40.6838H98.2569V64.9524H94.1769V60.4352C93.3787 61.8524 92.1813 63.0333 90.5848 63.9781C89.0178 64.8933 87.1847 65.351 85.0856 65.351C82.9274 65.351 80.9761 64.8195 79.2317 63.7567C77.4874 62.6938 76.1126 61.2029 75.1074 59.2838C74.1021 57.3648 73.5996 55.18 73.5996 52.7295ZM94.1769 52.7738C94.1769 50.9433 93.8074 49.349 93.0682 47.9909C92.3291 46.6329 91.3239 45.5995 90.0526 44.891C88.8108 44.1529 87.4361 43.7838 85.9282 43.7838C84.4204 43.7838 83.0456 44.1381 81.8039 44.8467C80.5621 45.5552 79.5717 46.5886 78.8326 47.9467C78.0934 49.3048 77.7239 50.899 77.7239 52.7295C77.7239 54.5895 78.0934 56.2133 78.8326 57.601C79.5717 58.959 80.5621 60.0071 81.8039 60.7452C83.0456 61.4538 84.4204 61.8081 85.9282 61.8081C87.4361 61.8081 88.8108 61.4538 90.0526 60.7452C91.3239 60.0071 92.3291 58.959 93.0682 57.601C93.8074 56.2133 94.1769 54.6043 94.1769 52.7738ZM147.014 64.9524L137.48 54.2352V64.9524H133.444V32.181H137.48V51.4452L146.837 40.6838H152.469L141.027 52.7738L152.514 64.9524H147.014Z" fill="#06D8A5"/>
</svg>
