<svg width="129" height="79" viewBox="0 0 129 79" fill="none" xmlns="http://www.w3.org/2000/svg">
<path d="M8.52169 51.4628H20.6863V55.1745H3.98486V20.2139H8.52169V51.4628Z" fill="white"/>
<path d="M9.9126 50.8236C9.9126 48.2655 10.4859 45.9707 11.6326 43.9393C12.7793 41.8828 14.3372 40.2777 16.3065 39.124C18.3007 37.9704 20.5068 37.3936 22.9248 37.3936C25.7665 37.3936 28.2468 38.0832 30.3656 39.4626C32.4845 40.842 34.03 42.7982 35.0022 45.3312H30.9265C30.2036 43.7512 29.1567 42.5348 27.7856 41.6821C26.4396 40.8294 24.8193 40.4031 22.9248 40.4031C21.1051 40.4031 19.4723 40.8294 18.0265 41.6821C16.5807 42.5348 15.4465 43.7512 14.6239 45.3312C13.8013 46.8861 13.39 48.7169 13.39 50.8236C13.39 52.9051 13.8013 54.7359 14.6239 56.3159C15.4465 57.8709 16.5807 59.0747 18.0265 59.9274C19.4723 60.7801 21.1051 61.2064 22.9248 61.2064C24.8193 61.2064 26.4396 60.7926 27.7856 59.965C29.1567 59.1123 30.2036 57.8959 30.9265 56.3159H35.0022C34.03 58.8239 32.4845 60.7675 30.3656 62.1469C28.2468 63.5012 25.7665 64.1783 22.9248 64.1783C20.5068 64.1783 18.3007 63.614 16.3065 62.4855C14.3372 61.3318 12.7793 59.7393 11.6326 57.7078C10.4859 55.6764 9.9126 53.3816 9.9126 50.8236Z" fill="#06D8A5"/>
<path d="M53.4441 41.6693C54.3913 41.8198 55.2513 42.2085 56.0241 42.8355C56.8218 43.4625 57.445 44.24 57.8937 45.1679C58.3673 46.0958 58.6041 47.0865 58.6041 48.1398C58.6041 49.469 58.2676 50.6728 57.5945 51.7512C56.9215 52.8046 55.9368 53.6447 54.6406 54.2717C53.3693 54.8736 51.8612 55.1746 50.1163 55.1746H40.3945V28.9541H49.7424C51.5122 28.9541 53.0203 29.2551 54.2667 29.857C55.5131 30.4338 56.4479 31.2238 57.0711 32.227C57.6942 33.2301 58.0058 34.3587 58.0058 35.6127C58.0058 37.1676 57.5821 38.4592 56.7345 39.4874C55.9119 40.4906 54.8151 41.2179 53.4441 41.6693ZM43.7971 40.2774H49.518C51.1134 40.2774 52.3473 39.9012 53.2197 39.1489C54.0922 38.3965 54.5284 37.3557 54.5284 36.0265C54.5284 34.6973 54.0922 33.6565 53.2197 32.9041C52.3473 32.1517 51.0884 31.7755 49.4432 31.7755H43.7971V40.2774ZM49.8171 52.3531C51.5122 52.3531 52.8334 51.9519 53.7806 51.1493C54.7279 50.3468 55.2015 49.2308 55.2015 47.8012C55.2015 46.3466 54.7029 45.2055 53.7058 44.3779C52.7087 43.5252 51.3751 43.0989 49.705 43.0989H43.7971V52.3531H49.8171ZM98.5778 34.1831C101.071 34.1831 103.09 34.9481 104.635 36.4779C106.181 37.9827 106.953 40.1646 106.953 43.0236V55.1746H103.588V43.5127C103.588 41.4562 103.077 39.8887 102.055 38.8103C101.033 37.7068 99.6372 37.1551 97.8673 37.1551C96.0725 37.1551 94.6392 37.7193 93.5673 38.8479C92.5204 39.9765 91.9969 41.6192 91.9969 43.776V55.1746H88.5943V34.5593H91.9969V37.4936C92.6699 36.4403 93.5798 35.6252 94.7265 35.0484C95.8981 34.4716 97.1818 34.1831 98.5778 34.1831Z" fill="white"/>
<path d="M62.0547 44.7917C62.0547 42.685 62.4784 40.8417 63.3259 39.2617C64.1735 37.6566 65.3326 36.4152 66.8033 35.5374C68.299 34.6596 69.9567 34.2207 71.7764 34.2207C73.5711 34.2207 75.1291 34.6094 76.4503 35.3869C77.7714 36.1644 78.7561 37.1425 79.4042 38.3212V34.5593H82.8442V55.1745H79.4042V51.3374C78.7311 52.5412 77.7216 53.5444 76.3755 54.3469C75.0543 55.1244 73.5088 55.5131 71.739 55.5131C69.9193 55.5131 68.274 55.0617 66.8033 54.1588C65.3326 53.2559 64.1735 51.9894 63.3259 50.3593C62.4784 48.7291 62.0547 46.8733 62.0547 44.7917ZM79.4042 44.8293C79.4042 43.2744 79.0926 41.9201 78.4694 40.7664C77.8462 39.6128 76.9987 38.735 75.9268 38.1331C74.8798 37.5061 73.7207 37.1926 72.4494 37.1926C71.1781 37.1926 70.019 37.4936 68.972 38.0955C67.9251 38.6974 67.09 39.5752 66.4668 40.7288C65.8436 41.8825 65.532 43.2367 65.532 44.7917C65.532 46.3717 65.8436 47.751 66.4668 48.9298C67.09 50.0834 67.9251 50.9737 68.972 51.6007C70.019 52.2026 71.1781 52.5036 72.4494 52.5036C73.7207 52.5036 74.8798 52.2026 75.9268 51.6007C76.9987 50.9737 77.8462 50.0834 78.4694 48.9298C79.0926 47.751 79.4042 46.3842 79.4042 44.8293ZM123.953 55.1745L115.914 46.0707V55.1745H112.512V27.3364H115.914V43.7007L123.804 34.5593H128.553L118.906 44.8293L128.59 55.1745H123.953Z" fill="#06D8A5"/>
</svg>
