<svg width="141" height="66" viewBox="0 0 141 66" fill="none" xmlns="http://www.w3.org/2000/svg">
<g clip-path="url(#clip0_96_411)">
<path d="M68.9849 52.0218H63.3449V44.2434H68.9849C71.6529 44.2846 73.4707 45.782 73.4707 48.1236C73.4707 50.468 71.6515 52.0218 68.9849 52.0218ZM69.7535 38.5H56.6765V66H63.3436V58.1281H69.7121C76.7441 58.1281 80.1765 53.1603 80.1765 48.1236C80.1765 43.0884 76.7842 38.5 69.7535 38.5ZM132.821 55.2833L120.15 38.5H113.353V66H120.15V49.1769L132.821 66H139.618V38.5H132.821V55.2833ZM59.7923 30.1483V27.4808H62.4907C63.7265 27.4808 64.372 27.8025 64.372 28.8145C64.372 29.7041 63.7444 30.1483 62.492 30.1483H59.7923ZM59.7923 22.0811H62.2819C63.479 22.0811 64.0499 22.5252 64.0499 23.4561C64.0499 24.5286 63.6311 24.9521 62.2819 24.9521H59.7937V22.0825L59.7923 22.0811ZM67.7353 28.9974C67.7353 27.5206 67.051 26.3271 65.7972 25.6603C66.082 25.4375 67.0137 24.4475 67.0137 23.0312C67.0137 20.8271 65.8359 19.25 62.0925 19.25H56.6765V33H62.8528C66.3861 33 67.7353 31.24 67.7353 28.996V28.9974ZM94.6193 24.5877L101.675 33H105.059V19.25H101.675V27.6416L94.6193 19.25H91.2353V33H94.6193V24.5877ZM123.029 30.2747L120.281 28.3965C119.81 28.9638 119.175 29.3729 118.462 29.5678C117.749 29.7627 116.992 29.7339 116.296 29.4855C115.6 29.2371 114.998 28.781 114.572 28.1796C114.146 27.5782 113.916 26.8607 113.916 26.125C113.916 25.3901 114.145 24.6733 114.57 24.0722C114.995 23.4711 115.596 23.0151 116.291 22.7661C116.987 22.5172 117.742 22.4875 118.455 22.6811C119.167 22.8747 119.803 23.2822 120.274 23.848L123.024 21.9684C122.379 21.1224 121.545 20.4367 120.588 19.9651C119.632 19.4934 118.579 19.2487 117.511 19.25C116.603 19.2491 115.703 19.4262 114.863 19.7713C114.024 20.1163 113.261 20.6225 112.618 21.261C111.975 21.8994 111.465 22.6576 111.117 23.4922C110.768 24.3267 110.589 25.2214 110.588 26.125C110.588 29.9214 113.685 33 117.511 33C119.764 33 121.765 31.9316 123.029 30.2747ZM134.088 22.5528C135.023 22.5786 135.911 22.9661 136.563 23.6329C137.215 24.2998 137.58 25.1934 137.58 26.1236C137.58 27.0539 137.215 27.9474 136.563 28.6143C135.911 29.2812 135.023 29.6687 134.088 29.6945C133.136 29.6945 132.223 29.3183 131.55 28.6486C130.876 27.9789 130.498 27.0707 130.498 26.1236C130.498 25.1766 130.876 24.2683 131.55 23.5986C132.223 22.929 133.136 22.5528 134.088 22.5528ZM134.088 33C135.921 33 137.679 32.2757 138.976 30.9864C140.272 29.697 141 27.9484 141 26.125C141 24.3016 140.272 22.553 138.976 21.2636C137.679 19.9743 135.921 19.25 134.088 19.25C132.255 19.25 130.497 19.9743 129.201 21.2636C127.905 22.553 127.176 24.3016 127.176 26.125C127.176 27.9484 127.905 29.697 129.201 30.9864C130.497 32.2757 132.255 33 134.088 33ZM79.5378 23.0106L81.4081 27.5756C80.7861 27.6691 80.1516 27.7214 79.5185 27.7214C78.8854 27.7214 78.2605 27.6705 77.6412 27.577L79.5378 23.012V23.0106ZM76.4524 30.4384C78.3687 30.8325 80.3435 30.854 82.268 30.5016C82.3717 30.4824 82.4753 30.4576 82.579 30.437L83.6296 33H87.0882L81.3169 19.25H77.7021L71.8824 33H75.388L76.4524 30.4384ZM94 55.5569C92.7144 55.5569 91.4399 55.4565 90.1819 55.2668L94.0401 46.0226L97.8416 55.2626C96.5753 55.4551 95.287 55.5569 94 55.5569ZM90.3478 38.5L78.7941 66H85.7031L87.8402 60.8767C91.6895 61.6648 95.6555 61.7078 99.5211 61.0033C99.7312 60.9648 99.94 60.9152 100.149 60.8726L102.258 66H109.206L97.6135 38.5H90.3478ZM20.0441 44.0633C15.51 44.0633 11.8246 40.469 11.8246 36.047C11.8246 31.625 15.51 28.0307 20.0441 28.0307C24.5782 28.0307 28.2636 31.625 28.2636 36.047C28.2636 40.469 24.5782 44.0633 20.0441 44.0633ZM20.0441 16.5C8.99082 16.5 0 25.2684 0 36.047V66H11.8246V53.9041L12.755 54.2603C15.0815 55.1458 17.531 55.594 20.0441 55.594C31.0974 55.594 40.0882 46.8256 40.0882 36.047C40.0882 25.2684 31.0974 16.5 20.0441 16.5Z" fill="#AAAAAA"/>
<path d="M0 11H11.0588V0H0V11Z" fill="#AAAAAA"/>
</g>
<defs>
<clipPath id="clip0_96_411">
<rect width="141" height="66" fill="white"/>
</clipPath>
</defs>
</svg>
