<svg width="117" height="117" viewBox="0 0 117 117" fill="none" xmlns="http://www.w3.org/2000/svg">
<circle cx="58.5" cy="58.5" r="58.5" fill="white"/>
<path d="M36.8468 76.9156H60.5679V84.1511H28V16H36.8468V76.9156Z" fill="black"/>
<path d="M39.5591 75.6693C39.5591 70.6826 40.6771 66.2093 42.9131 62.2493C45.1491 58.2404 48.1871 55.1115 52.0272 52.8626C55.9159 50.6137 60.2178 49.4893 64.9328 49.4893C70.4742 49.4893 75.3108 50.8337 79.4425 53.5226C83.5743 56.2115 86.588 60.0248 88.4837 64.9626H80.5362C79.1266 61.8826 77.085 59.5115 74.4115 57.8493C71.7866 56.187 68.6271 55.3559 64.9328 55.3559C61.3844 55.3559 58.2005 56.187 55.3812 57.8493C52.5619 59.5115 50.3502 61.8826 48.7461 64.9626C47.142 67.9937 46.34 71.5626 46.34 75.6693C46.34 79.727 47.142 83.2959 48.7461 86.3759C50.3502 89.407 52.5619 91.7537 55.3812 93.4159C58.2005 95.0782 61.3844 95.9093 64.9328 95.9093C68.6271 95.9093 71.7866 95.1026 74.4115 93.4893C77.085 91.827 79.1266 89.4559 80.5362 86.3759H88.4837C86.588 91.2648 83.5743 95.0537 79.4425 97.7426C75.3108 100.383 70.4742 101.703 64.9328 101.703C60.2178 101.703 55.9159 100.603 52.0272 98.4026C48.1871 96.1537 45.1491 93.0493 42.9131 89.0893C40.6771 85.1293 39.5591 80.6559 39.5591 75.6693Z" fill="#06D8A5"/>
</svg>
